<svg id="Layer_1" data-name="Layer 1" xmlns="http://www.w3.org/2000/svg" viewBox="0 0 68.31 75.06"><defs><style>.cls-1{fill:#2e81c4;}.cls-2{fill:#fff;}.cls-3{fill:#2f81c4;}.cls-4{fill:#30343f;}</style></defs><title>Planet-Michigan-logo-final</title><path class="cls-1" d="M70.82,45.5A32.66,32.66,0,1,1,38.17,12.84,32.65,32.65,0,0,1,70.82,45.5" transform="translate(-4.01 -4.6)"/><path class="cls-2" d="M28.21,15.54c-.46,1.75,0,5.73,1.17,7.43,1,1.48,2.42,1.31,3.26-.12s1.71-2,2.33-1.16c1.5,2,2.74,2.07,5.43,2.15s1.87,2.66.83,3.62c-1.36.7-2.89.63-3.47,1.79s-2.1,5.83-4.19,7.34-3.93.49-5.09.52c-1.41,0-2.87.44-3.06,2.1s1.91,3.21,4.12,4.26S34,46,34.35,48.05a9.67,9.67,0,0,1,6.53-.72,6.67,6.67,0,0,1,4.69,2.9c1.14,1.6,1,4.5,3.47,4s4.32-.79,5.31.25,1.71,4.7-2.16,9.33c-3,3.61-7.73,4.52-9.28,5.83a45.55,45.55,0,0,0-6.37,7.08c-.76,1.4-4.78,1-4.78,1S36,73.23,35.85,67.18c-.09-4.37-3.2-6.69-4.78-8.87-2.94-4.06,1-3.53,1.73-5.26.59-1.36,0-3.88-2.72-5.34-4.55-2.47-9.84-1-12.81-6.17-3.38-5.93-2-12.59-.76-14.79s4.37-8.15,4.37-8.15l5.41-3.14Z" transform="translate(-4.01 -4.6)"/><path class="cls-2" d="M70.07,43.81c-1.74,1.51-5.93,1.22-7.8-1.28s-2.73-4.72-1.16-10.13.58-4.78,0-6.06-3.73-1.16-4.6-2,.12-3-3.32-4.77a45.26,45.26,0,0,0-8.85-3.38c-.58,0,1.11,1.57,1,2.56s0,3.06-3.32,2.16c-1.92-.53-1.46-3.26-3.61-4.54a37.58,37.58,0,0,0-6.52-2.56l6.75-1.26L50.63,14.7,60.7,22.09l3.78,4.2,4.87,9Z" transform="translate(-4.01 -4.6)"/><path class="cls-3" d="M38.17,79.65A34.16,34.16,0,1,1,72.32,45.5,34.19,34.19,0,0,1,38.17,79.65m0-65.31A31.16,31.16,0,1,0,69.32,45.5,31.2,31.2,0,0,0,38.17,14.34" transform="translate(-4.01 -4.6)"/><path class="cls-4" d="M31.41,4.6a8.13,8.13,0,0,1,8.13,8.13c0,3.69-5.5,13-7.45,15.9a.81.81,0,0,1-.68.36.82.82,0,0,1-.68-.36c-1.95-2.94-7.45-12.21-7.45-15.9A8.13,8.13,0,0,1,31.41,4.6" transform="translate(-4.01 -4.6)"/><path class="cls-2" d="M31.41,16a3.31,3.31,0,1,0-3.3-3.3,3.31,3.31,0,0,0,3.3,3.3" transform="translate(-4.01 -4.6)"/></svg>